# xmcd
#
# Track frame offsets:
#	150
#	16023
#	30552
#	43665
#	60635
#	76268
#	93959
#	110312
#	123415
#	140135
#	154993
#	167910
#	185361
#	200841
#	215880
#
# Disc length: 3114 seconds
#
# Revision: 0
# Processed by: cddbd v1.5.1PL2 Copyright (c) Steve Scherf et al.
# Submitted via: EasyCDDAExtractor 9.0.2.1
#
DISCID=d10c280f
DTITLE=Various Artist - Wenn Berge traeumen
DYEAR=2006
DGENRE=Schlager
TTITLE0=Kastelruther Spatzen - Wenn Berge traeumen
TTITLE1=Monika Martin - Ich traeume von daheim
TTITLE2=Nockalm Quintett - Du schoenes Alpenland
TTITLE3=Stefanie Hertel - Ich glaube daran
TTITLE4=Alpentrio Tirol - Ich schenk dir einen Bergkristall
TTITLE5=Mara Kayser - Morgensterne schweigen
TTITLE6=Ursprung Buam - Gehn oder bleiben
TTITLE7=Judith and Mel - Mitten ins Herz
TTITLE8=AlpenRebellen - Hoamatland
TTITLE9=Marianne and Michael - Gar nix
TTITLE10=Axel Becker - Ein neuer Tag bricht an 
TTITLE11=Bergfeuer - Freiheit
TTITLE12=Oliver Thomas - Beruehr mich, verfuehr mich
TTITLE13=Francine Jordi - Wenn Kinderaugen weinen
TTITLE14=Stefan Mross - Am stillen Bergsee
EXTD=
EXTT0=
EXTT1=
EXTT2=
EXTT3=
EXTT4=
EXTT5=
EXTT6=
EXTT7=
EXTT8=
EXTT9=
EXTT10=
EXTT11=
EXTT12=
EXTT13=
EXTT14=
PLAYORDER=
